# xmcd
#
# Track frame offsets:
#   150
#   32555
#   65065
#   98622
#   143222
#   172925
#   200857
#   241772
#
# Disc length: 3680 seconds
#
# Revision: 0
# Processed by: cddbd v1.5.1PL0 Copyright (c) Steve Scherf et al.
# Submitted via: GXTranscoder 2.0.1939
#
DISCID=690e5e08
DTITLE=Luke Sanders - Fight For Live
DYEAR=1997
DGENRE=Open Mind Music
TTITLE0=A Matter Of Time
TTITLE1=When I Look Up
TTITLE2=Fight For Live
TTITLE3=Majo
TTITLE4=Celebration
TTITLE5=Humans In A New World
TTITLE6=Circle Of Life
TTITLE7=The Moon Is Still Lit
EXTD=
EXTT0=
EXTT1=
EXTT2=
EXTT3=
EXTT4=
EXTT5=
EXTT6=
EXTT7=
PLAYORDER=
